<svg xmlns="http://www.w3.org/2000/svg" viewBox="0 0 6738.53 1636.99"><defs><style>.cls-1{fill:#13110c;}.cls-2{fill:#e5e253;}.cls-3{fill:#b7dede;}.cls-4{fill:#fae02b;}</style></defs><g id="Layer_2" data-name="Layer 2"><g id="Layer_1-2" data-name="Layer 1"><path class="cls-1" d="M815.09,1637C365.65,1637,0,1271.34,0,821.89S365.65,6.79,815.09,6.79s815.11,365.64,815.11,815.1S1264.55,1637,815.09,1637"/><path class="cls-1" d="M815.09,57.76C393.76,57.76,51,400.54,51,821.89S393.76,1586,815.09,1586s764.13-342.78,764.13-764.11S1236.44,57.76,815.09,57.76"/><path class="cls-2" d="M1492.88,711.43c0,374.32-303.45,677.77-677.78,677.77S137.31,1085.75,137.31,711.43,440.77,33.65,815.1,33.65s677.78,303.45,677.78,677.78"/><path class="cls-1" d="M815.09,1406.55c-387.78,0-703.26-315.49-703.26-703.28S427.31,0,815.09,0s703.28,315.49,703.28,703.27-315.48,703.28-703.28,703.28M815.09,51C455.43,51,162.81,343.61,162.81,703.27s292.62,652.3,652.28,652.3,652.3-292.61,652.3-652.3S1174.76,51,815.09,51"/><path class="cls-3" d="M1251.64,1139.71c-65.1,303.79-364.15,497.3-667.95,432.2S86.4,1207.76,151.5,904s364.15-497.3,667.94-432.19,497.3,364.16,432.2,668"/><path class="cls-1" d="M702.77,1610.07a592.93,592.93,0,0,1-124.42-13.25c-153.58-32.91-285.16-123.66-370.49-255.53s-114.2-289.1-81.27-442.67c67.94-317,381.13-519.75,698.2-451.78S1344.5,828,1276.57,1145.05c-32.92,153.6-123.68,285.17-255.55,370.49-96.33,62.34-206.18,94.53-318.25,94.53M701.45,484.7c-247.74,0-471.06,172.79-525,424.59-30,140.27-3.69,283.86,74.23,404.3S448.76,1516.91,589,1547s283.86,3.7,404.29-74.24,203.33-198.09,233.39-338.36c62-289.57-123-575.64-412.61-637.71a537.35,537.35,0,0,0-112.65-12"/><path class="cls-4" d="M1542,1045.55c0,192.78-156.29,349-349.07,349s-349.05-156.27-349.05-349,156.27-349,349.05-349S1542,852.78,1542,1045.55"/><path class="cls-1" d="M1193,1420.09c-206.53,0-374.54-168-374.54-374.53S986.43,671,1193,671s374.55,168,374.55,374.55-168,374.53-374.55,374.53m0-698.1c-178.41,0-323.57,145.14-323.57,323.57s145.16,323.55,323.57,323.55,323.57-145.15,323.57-323.55S1371.37,722,1193,722"/><path class="cls-1" d="M2228,877.83H2095.94l-53.65,254.87H1891.62l146.54-688.27h283.77c115.57,0,194,81.52,194,174.39C2515.92,803.53,2369.39,877.83,2228,877.83Zm18.57-332.28h-80.49l-49.53,231.14h51.59c101.13,0,194-22.69,194-143.43C2362.17,578.57,2305.42,545.55,2246.6,545.55Z"/><path class="cls-1" d="M2996.81,949c-18.58,83.58-23.73,144.46-24.77,183.67h-145.5c2.06-25.8,11.35-74.29,19.61-121.77-37.15,67.08-98,133.12-199.16,133.12-104.22,0-156.85-69.13-156.85-165.1,0-232.18,207.42-375.61,404.51-375.61,59.85,0,137.24,10.32,173.35,23.74Zm-129-249.73c-118.67,0-227,125.9-227,264.17,0,46.44,16.51,84.62,70.17,84.62,72.24,0,141.37-99.06,170.27-222.89l27.86-119.71C2895.68,700.34,2881.24,699.3,2867.82,699.3Z"/><path class="cls-1" d="M3548.89,1063.57c-46.44,208.44-122.8,303.37-351.88,303.37-69.13,0-135.18-13.41-179.55-28.89l27.86-102.16c49.53,26.84,102.16,35.09,148.6,35.09,129,0,178.52-68.11,202.25-165.1l16.51-68.11c-49.53,66-101.13,94.93-186.78,94.93-106.28,0-157.88-66-157.88-153.75,0-233.21,212.58-374.58,410.7-374.58,56.75,0,128,10.31,167.16,22.71ZM3447.76,700.34c-118.67,0-229.08,121.76-229.08,266.22,0,46.44,16.51,80.5,67.07,80.5,97,0,150.66-123.83,172.33-215.67L3488,706.53A136.17,136.17,0,0,0,3447.76,700.34Z"/><path class="cls-1" d="M4154.62,570.32c-36.11-19.61-93.9-34.05-142.4-34.05-62.95,0-156.85,28.88-156.85,100.09,0,100.09,272.42,84.62,272.42,274.49,0,150.65-142.4,233.2-316.79,233.2-70.17,0-137.24-8.25-201.22-29.92l36.11-112.48c33,19.61,98,40.24,169.23,39.21,73.27-1,154.79-34,154.79-110.41,0-108.35-270.36-97-270.36-271.39,0-164.07,164.08-225,320.93-225,57.78,0,125.88,12.39,169.22,31Z"/><path class="cls-1" d="M4318.71,913.94c-5.17,14.44-7.23,33-7.23,48.5,0,69.14,53.66,97,116.6,97,53.66,0,114.54-18.58,158.91-47.47l-5.15,91.84c-58.82,28.89-125.9,40.24-197.09,40.24-112.48,0-218.77-48.5-218.77-175.42,0-205.35,155.82-364.26,339.49-364.26,83.59,0,178.52,29.93,178.52,124.86C4684,892.27,4447.69,913.94,4318.71,913.94Zm174.38-226c-78.42,0-135.18,81.51-161,148.59,92.88,0,222.89-16.51,222.89-98C4555,700.34,4527.15,688,4493.09,688Z"/><path class="cls-1" d="M5159.71,1063.57c-46.44,208.44-122.8,303.37-351.88,303.37-69.14,0-135.18-13.41-179.55-28.89l27.86-102.16c49.53,26.84,102.16,35.09,148.6,35.09,129,0,178.52-68.11,202.25-165.1l16.51-68.11c-49.53,66-101.13,94.93-186.78,94.93-106.28,0-157.88-66-157.88-153.75,0-233.21,212.58-374.58,410.7-374.58,56.75,0,128,10.31,167.16,22.71ZM5058.58,700.34c-118.67,0-229.08,121.76-229.08,266.22,0,46.44,16.51,80.5,67.07,80.5,97,0,150.66-123.83,172.33-215.67l29.93-124.86A136.17,136.17,0,0,0,5058.58,700.34Z"/><path class="cls-1" d="M5731.39,1016.1c-8.26,38.18-15.48,78.42-19.61,116.6H5578.66l14.45-92.86c-44.36,60.88-99.06,104.21-184.7,104.21-83.59,0-142.41-42.31-142.41-127.95,0-18.57,1-39.21,5.16-58.82l73.27-343.62h142.39l-65,312.66c-4.13,18.57-8.26,36.12-8.26,53.66,0,39.21,18.58,68.11,68.11,68.11,77.39,0,113.5-71.2,128-137.24l62.94-297.19H5815Z"/><path class="cls-1" d="M6196.79,738.51c-13.42-5.15-27.87-7.22-42.31-7.22-93.91,0-146.54,90.81-164.07,173.36L5941.9,1132.7H5798.47l85.64-402.44c8.26-38.18,16.51-76.36,20.64-114.54H6038.9L6019.29,722c32-64,94.94-118.66,169.24-118.66,14.44,0,27.86,1,41.28,5.16Z"/><path class="cls-1" d="M6405.22,1144.05c-114.53,0-219.78-62.94-219.78-187.8,0-200.19,129-351.88,334.32-351.88,114.55,0,218.77,60.88,218.77,186.78C6738.53,989.27,6607.48,1144.05,6405.22,1144.05ZM6495,700.34c-106.29,0-159.94,150.65-159.94,240.43,0,61.91,23.74,107.32,90.8,107.32,104.23,0,164.08-151.69,164.08-240.43C6589.94,745.74,6562.07,700.34,6495,700.34Z"/></g></g></svg>
